<?xml version="1.0" standalone="no"?>
<!DOCTYPE svg PUBLIC "-//W3C//DTD SVG 20010904//EN"
 "http://www.w3.org/TR/2001/REC-SVG-20010904/DTD/svg10.dtd">
<svg version="1.0" xmlns="http://www.w3.org/2000/svg"
 width="254.000000pt" height="254.000000pt" viewBox="0 0 254.000000 254.000000"
 preserveAspectRatio="xMidYMid meet">
<metadata>
Created by potrace 1.14, written by Peter Selinger 2001-2017
</metadata>
<g transform="translate(0.000000,254.000000) scale(0.100000,-0.100000)"
fill="#000000" stroke="none">
<path d="M1025 2500 c-307 -62 -572 -229 -761 -479 -69 -92 -150 -245 -185
-351 -80 -243 -80 -561 1 -800 124 -367 427 -671 790 -791 242 -80 558 -80
800 0 363 120 666 424 790 791 81 239 81 561 0 800 -124 367 -427 671 -790
791 -185 61 -456 77 -645 39z"/>
</g>
</svg>
